<?xml version="1.0" encoding="UTF-8"?><svg id="_レイヤー_2" xmlns="http://www.w3.org/2000/svg" viewBox="0 0 1374.8 1263.79"><defs><style>.cls-1,.cls-2,.cls-3,.cls-4{fill:#fff;}.cls-5,.cls-6{fill:#272828;}.cls-2{stroke-width:9.86px;}.cls-2,.cls-3,.cls-4,.cls-6{stroke:#272828;stroke-miterlimit:10;}.cls-3,.cls-6{stroke-width:4.93px;}.cls-4{stroke-width:19.73px;}</style></defs><g id="_レイヤー_2-2"><polygon class="cls-4" points="1152.01 177.53 981.35 154.65 957.97 224.84 1103.22 370.1 1176.22 340.87 1152.01 177.53"/><path class="cls-6" d="M722,605.43c108.02-153.66,184.73-280.75,223.96-376.03l152.08,152.08c-111.39,51.17-236.11,124.78-376.03,223.96Z"/><polyline class="cls-4" points="977.53 151.4 1076.02 253.6 1100.22 229.4"/><polygon class="cls-1" points="974.43 354.86 1019.44 342.8 986.49 309.85 974.43 354.86"/><polygon class="cls-1" points="862.75 466.54 817.74 478.6 850.69 511.55 862.75 466.54"/><rect class="cls-6" x="1119.78" y="46.6" width="167.28" height="167.28"/><rect class="cls-1" x="1203.42" y="81.32" width="48.92" height="97.84"/><polygon class="cls-1" points="1287.06 46.6 1119.78 213.88 1287.06 213.88 1287.06 46.6"/><rect class="cls-5" x="1154.5" y="81.32" width="48.92" height="97.84"/><polygon class="cls-4" points="1149.91 1082.45 1172.78 911.8 1102.59 888.42 957.34 1033.67 986.56 1106.67 1149.91 1082.45"/><path class="cls-6" d="M722,652.45c153.66,108.02,280.75,184.73,376.03,223.96l-152.08,152.08c-51.17-111.39-124.78-236.11-223.96-376.03Z"/><polyline class="cls-4" points="1176.04 907.98 1073.84 1006.47 1098.04 1030.67"/><polygon class="cls-1" points="972.57 904.87 984.64 949.89 1017.59 916.94 972.57 904.87"/><polygon class="cls-1" points="860.9 793.2 848.84 748.19 815.88 781.14 860.9 793.2"/><rect class="cls-6" x="1119.78" y="1051.55" width="167.28" height="167.28"/><rect class="cls-1" x="1203.42" y="1086.27" width="48.92" height="97.84"/><polygon class="cls-1" points="1287.05 1218.83 1119.78 1051.55 1287.05 1051.55 1287.05 1218.83"/><rect class="cls-5" x="1154.5" y="1086.27" width="48.92" height="97.84"/><polygon class="cls-4" points="252.07 1079.93 422.93 1101.22 445.66 1030.81 299.06 886.91 226.33 916.82 252.07 1079.93"/><path class="cls-6" d="M679.47,652.45c-108.02,153.66-184.73,280.75-223.96,376.03l-152.08-152.08c111.39-51.17,236.11-124.78,376.03-223.96Z"/><polyline class="cls-4" points="424.62 1102.65 326.12 1000.45 301.93 1024.65"/><polygon class="cls-1" points="427.05 903.02 382.03 915.08 414.98 948.03 427.05 903.02"/><polygon class="cls-1" points="538.72 791.34 583.73 779.28 550.78 746.33 538.72 791.34"/><rect class="cls-6" x="117.73" y="1051.55" width="167.28" height="167.28" transform="translate(402.74 2270.37) rotate(180)"/><rect class="cls-1" x="152.45" y="1086.27" width="48.92" height="97.84" transform="translate(353.82 2270.37) rotate(180)"/><polygon class="cls-1" points="117.73 1218.82 285.01 1051.55 117.73 1051.55 117.73 1218.82"/><rect class="cls-5" x="201.37" y="1086.27" width="48.92" height="97.84" transform="translate(451.66 2270.37) rotate(180)"/><polygon class="cls-4" points="243.95 174.09 219.49 344.53 289.46 368.56 436.06 224.66 407.51 151.4 243.95 174.09"/><path class="cls-6" d="M667.14,602.03c-153.66-108.02-280.75-184.73-376.03-223.96l152.08-152.08c51.17,111.39,124.78,236.11,223.96,376.03Z"/><polyline class="cls-4" points="222.01 346.5 324.21 248.01 300.02 223.81"/><polygon class="cls-1" points="416.57 349.6 404.51 304.59 371.56 337.54 416.57 349.6"/><polygon class="cls-1" points="528.25 461.28 540.31 506.29 573.26 473.34 528.25 461.28"/><rect class="cls-6" x="117.73" y="46.6" width="167.28" height="167.28" transform="translate(402.74 260.49) rotate(180)"/><rect class="cls-1" x="152.45" y="81.32" width="48.92" height="97.84" transform="translate(353.82 260.49) rotate(180)"/><polygon class="cls-1" points="117.73 46.6 285.01 213.88 117.73 213.88 117.73 46.6"/><rect class="cls-5" x="201.37" y="81.32" width="48.92" height="97.84" transform="translate(451.66 260.49) rotate(180)"/><path class="cls-5" d="M769.1,631.64c-29.17,0-70.67,41.51-70.67,70.67,0-29.17-41.51-70.67-70.67-70.67,29.17,0,70.67-41.51,70.67-70.67,0,29.17,41.51,70.67,70.67,70.67Z"/><rect class="cls-2" x="682.57" y="520.36" width="31.71" height="31.71" transform="translate(-174.6 650.92) rotate(-45)"/><rect class="cls-2" x="778" y="615.78" width="31.71" height="31.71" transform="translate(908.56 1639.61) rotate(-135)"/><rect class="cls-2" x="682.57" y="711.2" width="31.71" height="31.71" transform="translate(-309.54 706.81) rotate(-45)"/><rect class="cls-2" x="588.15" y="615.34" width="31.71" height="31.71" transform="translate(584.78 1504.61) rotate(-135)"/><path class="cls-5" d="M699.46,354.99l-1.07,150.51c8.05-21.83,19.33-39.37,33.82-52.62-11.76-5.8-22.54-42.77-32.75-97.9Z"/><path class="cls-5" d="M699.44,354.91l-1.03,150.51c-7.75-21.94-18.78-39.64-33.09-53.08,11.84-5.63,23.14-42.45,34.11-97.43Z"/><polygon class="cls-5" points="772.2 452.76 738.13 489.61 738.13 415.91 772.2 452.76"/><polygon class="cls-5" points="625.75 452.08 659.82 488.93 659.82 415.23 625.75 452.08"/><path class="cls-5" d="M422.96,630.24l150.51,1.07c-21.83-8.05-39.37-19.33-52.62-33.82-5.8,11.76-42.77,22.54-97.9,32.75Z"/><path class="cls-5" d="M422.88,630.27l150.51,1.03c-21.94,7.75-39.64,18.78-53.08,33.09-5.63-11.84-42.45-23.14-97.43-34.11Z"/><polygon class="cls-5" points="520.72 557.51 557.57 591.58 483.87 591.58 520.72 557.51"/><polygon class="cls-5" points="520.05 703.96 556.9 669.88 483.2 669.88 520.05 703.96"/><path class="cls-5" d="M697.39,908.26l1.07-150.51c-8.05,21.83-19.33,39.37-33.82,52.62,11.76,5.8,22.54,42.77,32.75,97.9Z"/><path class="cls-5" d="M697.42,908.34l1.03-150.51c7.75,21.94,18.78,39.64,33.09,53.08-11.84,5.63-23.14,42.45-34.11,97.43Z"/><polygon class="cls-5" points="624.66 810.5 658.73 773.64 658.73 847.35 624.66 810.5"/><polygon class="cls-5" points="771.11 811.17 737.03 774.32 737.03 848.02 771.11 811.17"/><path class="cls-5" d="M974.97,630.57l-150.51,1.07c21.83-8.05,39.37-19.33,52.62-33.82,5.8,11.76,42.77,22.54,97.9,32.75Z"/><path class="cls-5" d="M975.04,630.6l-150.51,1.03c21.94,7.75,39.64,18.78,53.08,33.09,5.63-11.84,42.45-23.14,97.43-34.11Z"/><polygon class="cls-5" points="877.2 557.84 840.35 591.91 914.05 591.91 877.2 557.84"/><polygon class="cls-5" points="877.88 704.29 841.03 670.22 914.73 670.22 877.88 704.29"/><rect class="cls-5" x="536.55" y="65.35" width="60.48" height="279.98"/><rect class="cls-5" x="803.54" y="65.35" width="60.48" height="279.98"/><circle class="cls-2" cx="566.79" cy="379.42" r="24.42"/><circle class="cls-2" cx="831.17" cy="29.36" r="24.42"/><polygon class="cls-5" points="623.5 291.44 597.03 320.47 597.03 345.33 672.64 345.33 623.5 291.44"/><polygon class="cls-5" points="781.36 119.24 732.21 65.35 803.54 65.35 803.54 94.92 781.36 119.24"/><path class="cls-5" d="M641.76,125.18l-10.22-41.2c-.04-.17-.24-.24-.39-.14l-25.84,18.81c-.14,.1-.13,.32,.02,.41l36.06,22.38c.19,.12,.43-.05,.37-.27Z"/><path class="cls-5" d="M678.85,176.03l-10.22-41.2c-.04-.17-.24-.24-.39-.14l-25.84,18.81c-.14,.1-.13,.32,.02,.41l36.06,22.38c.19,.12,.43-.05,.37-.27Z"/><path class="cls-5" d="M720.1,232.11l-10.22-41.2c-.04-.17-.24-.24-.39-.14l-25.84,18.81c-.14,.1-.13,.32,.02,.41l36.06,22.38c.19,.12,.43-.05,.37-.27Z"/><path class="cls-5" d="M759.86,286.32l-10.22-41.2c-.04-.17-.24-.24-.39-.14l-25.84,18.81c-.14,.1-.13,.32,.02,.41l36.06,22.38c.19,.12,.43-.05,.37-.27Z"/><path class="cls-5" d="M797.08,336.79l-10.22-41.2c-.04-.17-.24-.24-.39-.14l-25.84,18.81c-.14,.1-.13,.32,.02,.41l36.06,22.38c.19,.12,.43-.05,.37-.27Z"/><rect class="cls-5" x="993.46" y="496.64" width="273.23" height="39.57"/><rect class="cls-5" x="993.45" y="726.32" width="273.23" height="39.57"/><polygon class="cls-5" points="993.45 726.32 993.45 644.17 1077.87 726.65 993.45 726.32"/><polygon class="cls-5" points="993.46 536.21 993.46 617.3 1076.45 536.21 993.46 536.21"/><polygon class="cls-5" points="1060.86 663.66 1060.86 597.53 1003.59 630.6 1060.86 663.66"/><polygon class="cls-5" points="1118.08 630.6 1118.08 564.47 1060.81 597.53 1118.08 630.6"/><polygon class="cls-5" points="1117.94 696.73 1117.94 630.6 1060.67 663.66 1117.94 696.73"/><path class="cls-5" d="M1161.33,630.6c-6.27,0-18.05,11.79-18.05,18.05,0-6.27-11.79-18.05-18.05-18.05,6.27,0,18.05-11.79,18.05-18.05,0,6.27,11.79,18.05,18.05,18.05Z"/><rect class="cls-5" x="1155.42" y="662.61" width="13.95" height="63.64"/><rect class="cls-5" x="1183.93" y="662.61" width="13.95" height="63.64"/><rect class="cls-5" x="1213.76" y="662.61" width="13.95" height="63.71"/><rect class="cls-5" x="1154.76" y="536.21" width="13.95" height="62.37"/><rect class="cls-5" x="1183.27" y="536.21" width="13.95" height="62.37"/><rect class="cls-5" x="1213.1" y="536.21" width="13.95" height="62.37"/><polygon class="cls-5" points="1266.54 726.21 1266.54 766.01 1321.4 746.04 1266.54 726.21"/><polyline class="cls-5" points="1266.69 536.32 1321.54 516.35 1266.69 496.53"/><circle class="cls-2" cx="1353.87" cy="516.43" r="16"/><circle class="cls-2" cx="1353.87" cy="746.11" r="16"/><rect class="cls-3" x="772.51" y="879.79" width="49.92" height="264.52"/><rect class="cls-3" x="579.04" y="879.79" width="49.92" height="264.52"/><polygon class="cls-5" points="770.25 912.38 734.61 876.98 770.06 877.33 770.25 912.38"/><polygon class="cls-5" points="631.43 877.34 667.16 877.3 631.37 911.15 631.43 877.34"/><polygon class="cls-5" points="697.42 923.9 629.51 1147.31 773.22 1147.31 697.42 923.9"/><polygon class="cls-5" points="796.26 1000.99 775.4 1069.61 819.54 1069.61 796.26 1000.99"/><polygon class="cls-5" points="602.79 1001 581.94 1069.62 626.07 1069.62 602.79 1001"/><polygon class="cls-5" points="796.26 1004.76 775.4 936.14 819.54 936.14 796.26 1004.76"/><polygon class="cls-5" points="602.79 1004.76 581.94 936.14 626.07 936.14 602.79 1004.76"/><path class="cls-5" d="M797.47,1199.73c-2.15-22.53-10.48-40.01-24.97-52.43h52.84c-15.64,12.42-24.93,29.9-27.87,52.43Z"/><path class="cls-5" d="M601.1,1199.73c-2.15-22.53-10.48-40.01-24.97-52.43h52.84c-15.64,12.42-24.93,29.9-27.87,52.43Z"/><circle class="cls-2" cx="600.55" cy="1234.44" r="24.42"/><circle class="cls-2" cx="797.47" cy="1234.44" r="24.42"/><rect class="cls-5" x="120.47" y="488.93" width="351.39" height="19.14"/><rect class="cls-5" x="120.47" y="508.07" width="56.3" height="238.78"/><rect class="cls-6" x="306.97" y="510.67" width="56.3" height="233.71"/><rect class="cls-5" x="120.47" y="746.86" width="351.39" height="19.14"/><polygon class="cls-5" points="273.11 627.24 242.03 646.39 210.63 627.24 242.03 608.09 273.11 627.24"/><polygon class="cls-5" points="241.87 654.23 241.87 706.26 260.79 683.17 241.87 654.23"/><polygon class="cls-5" points="241.87 545.46 241.87 597.49 260.79 574.41 241.87 545.46"/><polygon class="cls-5" points="225.25 644.84 207.97 671.27 225.25 665.82 225.25 644.84"/><polygon class="cls-5" points="225.65 608.09 208.38 581.66 225.65 587.11 225.65 608.09"/><polygon class="cls-5" points="248.18 418.51 208.07 457.87 288.28 457.87 248.18 418.51"/><polygon class="cls-5" points="248.18 835.3 208.07 795.94 288.28 795.94 248.18 835.3"/><polygon class="cls-5" points="432.5 522.3 471.86 555.67 471.86 488.93 432.5 522.3"/><polygon class="cls-5" points="432.5 732.63 471.86 766 471.86 699.26 432.5 732.63"/><polygon class="cls-5" points="56.69 627.24 120.47 664.06 120.47 590.42 56.69 627.24"/><circle class="cls-2" cx="20.93" cy="627.24" r="16"/></g></svg>