<?xml version="1.0" encoding="UTF-8"?><svg id="_レイヤー_2" xmlns="http://www.w3.org/2000/svg" viewBox="0 0 598.12 251.65"><defs><style>.cls-1{font-size:200px;}.cls-1,.cls-2,.cls-3{fill:#7f4e4e;}.cls-1,.cls-3{font-family:AB-suzume-83pv-RKSJ-H, AB-suzume;}.cls-4{fill:#5f6aa0;}.cls-3{font-size:118.99px;}</style></defs><g id="_レイヤー_1-2"><text class="cls-1" transform="translate(0 219.65)"><tspan x="0" y="0">project:</tspan></text><text class="cls-3" transform="translate(219.64 104.71)"><tspan x="0" y="0">2023</tspan></text><path class="cls-4" d="m420.46,89.54c0,6.89,3.01,22.61,14,22.61v4.09c-10.12,0-14,14.64-14,22.61h-4.09c0-7.32-3.45-22.61-14-22.61v-4.09c9.91,0,14-15.51,14-22.61h4.09Z"/><path class="cls-2" d="m473.44,89.76c-38.33,57.07-40.7,81.62-40.7,101.43,0,10.98,4.52,17.01,14.21,17.01v4.09c-11.2,0-17.66,11.84-17.66,25.63h-4.09c0-11.63-5.81-25.63-18.3-25.63v-4.09c9.04,0,13.57-5.17,13.57-16.58,0-21.97,5.6-42.85,49.96-104.01l3.02,2.15Z"/><path class="cls-4" d="m421.97,74.25v-4.09c9.91,0,14-15.51,14-22.61h3.88c0,6.68,3.23,22.61,14.21,22.61v4.09c-10.12,0-14.21,14.64-14.21,22.61h-3.88c0-7.32-3.45-22.61-14-22.61Z"/><path class="cls-2" d="m598.12,63.7c-4.52,0-7.97,2.15-7.97,6.03v52.54c-12.06,2.58-20.03,9.69-21.97,17.66h-2.8c-4.52-9.91-19.38-15.29-28.86-15.29-5.81,0-12.71,4.09-12.92,11.2h-3.88c.22-15.07,8.83-23.69,20.03-23.69,12.92,0,27.78,11.41,31.66,11.41,3.66,0,4.09-4.09,4.09-8.18v-52.98h-52.76c-4.52,29.07-19.17,64.17-61.8,85.71l-1.94-3.02c32.09-22.18,47.16-59.22,47.59-82.69h-36.18v-3.88h99.71c5.6,0,9.91-6.25,9.91-13.14h3.23c0,6.46,8.4,14.43,14.86,14.43v3.88Z"/><path class="cls-2" d="m577.66,139.29h-4.09c0,7.75-4.31,15.29-11.2,15.29h-62.67l-14.21-10.55v72.57c0,3.45-2.8,6.89-8.83,6.89v3.66c8.4,0,14.64,8.61,14.64,15.94h3.88c0-9.69,2.37-18.95,9.26-18.95h64.6v14.43h14.64v-73c0-3.45,2.8-6.46,8.4-6.46v-3.88c-8.61,0-14.43-9.04-14.43-15.94Zm-8.61,80.97h-68.91v-62.02h68.91v62.02Z"/></g></svg>