<?xml version="1.0" encoding="UTF-8"?><svg id="_レイヤー_2" xmlns="http://www.w3.org/2000/svg" viewBox="0 0 592.92 198.86"><defs><style>.cls-1{fill:#7f4e4e;}.cls-2{fill:#5f6aa0;}</style></defs><g id="_レイヤー_1-2"><path class="cls-1" d="m51.4,141.06c0,6.8-2.6,13.2-7.6,18.2-4.8,4.8-11.2,7.4-18.2,7.4-5.8,0-11.4-2-15.6-5.4v37.6H0v-57.8c0-14.2,11.4-25.8,25.6-25.8s25.8,11.6,25.8,25.8Zm-10,0c0-8.8-7-15.8-15.8-15.8s-15.6,7-15.6,15.8,7,15.6,15.6,15.6c4.2,0,8.2-1.6,11.2-4.6s4.6-6.8,4.6-11Z"/><path class="cls-1" d="m88.6,127.26v10c-8.6,0-15.6,7-15.6,15.8v25.6h-10v-25.6c0-14.2,11.4-25.8,25.6-25.8Z"/><path class="cls-1" d="m127.8,127.26c7,0,13.4,2.6,18.2,7.6,5,4.8,7.6,11.2,7.6,18.2,0,14.2-11.6,25.6-25.8,25.6s-25.6-11.4-25.6-25.6,11.4-25.8,25.6-25.8Zm0,41.4c8.8,0,15.8-7,15.8-15.6,0-4.2-1.6-8.2-4.6-11.2s-7-4.6-11.2-4.6c-8.6,0-15.6,7-15.6,15.8s7,15.6,15.6,15.6Z"/><path class="cls-1" d="m175.19,95.26v76.4c0,14.2-11.6,25.8-25.6,25.8v-10c8.6,0,15.6-7.2,15.6-15.8v-76.4h10Zm0-19.8v10h-10v-10h10Z"/><path class="cls-1" d="m212.79,127.06c7,0,13.4,2.8,18.2,7.6,5,4.8,7.6,11.2,7.6,18.2v5h-40.6c2.2,6.2,8,10.8,14.8,10.8v10c-14.2,0-25.6-11.6-25.6-25.8s11.4-25.8,25.6-25.8Zm-14.8,20.8h29.8c-.8-2.4-2-4.4-3.8-6.2-3-3-7-4.6-11.2-4.6-6.8,0-12.6,4.6-14.8,10.8Z"/><path class="cls-1" d="m298.99,134.66l-7,7c-6.2-6-16.2-6-22.2,0s-6.2,16.2,0,22.2c2.8,3,6.8,4.8,11,4.8s8.2-1.8,11.2-4.8l7,7.2c-4.8,4.8-11.2,7.6-18.2,7.6s-13.2-2.8-18.2-7.6c-10-10-10-26.4,0-36.4,10-10,26.4-10,36.4,0Z"/><path class="cls-1" d="m360.59,127.26h-20.8v51.4h-10v-51.4h-20.6v-10h20.6v-41h10v41h20.8v10Z"/><path class="cls-1" d="m389.19,91.46v14h-14v-14h14Zm0,63.2v14h-14v-14h14Z"/><path class="cls-1" d="m237.4.66c4.52,0,8.69,1.67,11.9,4.88s5,7.5,5,12.02c0,9.28-7.62,16.9-16.9,16.9-6.07,0-10.95,4.88-10.95,10.95,0,2.86,1.07,5.71,3.21,7.73,2.02,2.02,4.76,3.21,7.73,3.21,5.95,0,10.95-4.88,10.95-10.95h5.95c0,9.28-7.62,16.9-16.9,16.9-4.52,0-8.81-1.78-12.02-5s-4.88-7.38-4.88-11.9c0-9.4,7.5-16.9,16.9-16.9,5.95,0,10.95-5,10.95-10.95,0-2.98-1.19-5.71-3.21-7.73-2.14-2.14-4.88-3.21-7.73-3.21-6.07,0-10.95,4.88-10.95,10.95h-5.95c0-9.4,7.5-16.9,16.9-16.9Z"/><path class="cls-1" d="m282.02.66c4.52,0,8.69,1.67,11.9,4.88s5,7.5,5,12.02v27.84c0,9.28-7.62,16.9-16.9,16.9s-16.9-7.62-16.9-16.9v-27.84c0-9.4,7.5-16.9,16.9-16.9Zm0,55.69c5.95,0,10.95-4.88,10.95-10.95v-27.84c0-2.98-1.19-5.71-3.21-7.73-2.14-2.14-4.88-3.21-7.73-3.21-6.07,0-10.95,4.88-10.95,10.95v27.84c0,6.07,4.88,10.95,10.95,10.95Z"/><path class="cls-1" d="m327.6.66c4.52,0,8.69,1.67,11.9,4.88,3.21,3.21,5,7.5,5,12.02,0,9.28-7.62,16.9-16.9,16.9-6.07,0-10.95,4.88-10.95,10.95,0,2.86,1.07,5.71,3.21,7.73,2.02,2.02,4.76,3.21,7.73,3.21,5.95,0,10.95-4.88,10.95-10.95h5.95c0,9.28-7.62,16.9-16.9,16.9-4.52,0-8.8-1.78-12.02-5s-4.88-7.38-4.88-11.9c0-9.4,7.5-16.9,16.9-16.9,5.95,0,10.95-5,10.95-10.95,0-2.98-1.19-5.71-3.21-7.73-2.14-2.14-4.88-3.21-7.73-3.21-6.07,0-10.95,4.88-10.95,10.95h-5.95c0-9.4,7.5-16.9,16.9-16.9Z"/><path class="cls-1" d="m384.12,33.38c3.21,3.21,5,7.5,5,12.02,0,9.28-7.62,16.9-16.9,16.9s-16.9-7.62-16.9-16.9h5.95c0,6.07,4.88,10.95,10.95,10.95s10.95-4.88,10.95-10.95c0-2.98-1.19-5.71-3.21-7.73-2.14-2.14-4.88-3.21-7.73-3.21v-5.95c5.95,0,10.95-5,10.95-10.95,0-2.98-1.19-5.71-3.21-7.73-2.14-2.14-4.88-3.21-7.73-3.21-6.07,0-10.95,4.88-10.95,10.95h-5.95c0-9.4,7.5-16.9,16.9-16.9,4.52,0,8.69,1.67,11.9,4.88,3.21,3.21,5,7.5,5,12.02,0,5.71-2.97,10.83-7.38,13.92.83.6,1.67,1.19,2.38,1.9Z"/><path class="cls-2" d="m415.26,44.15c0,6.89,3.01,22.61,14,22.61v4.09c-10.12,0-14,14.64-14,22.61h-4.09c0-7.32-3.45-22.61-14-22.61v-4.09c9.91,0,14-15.51,14-22.61h4.09Z"/><path class="cls-1" d="m468.24,44.36c-38.33,57.07-40.7,81.62-40.7,101.43,0,10.98,4.52,17.01,14.21,17.01v4.09c-11.2,0-17.66,11.84-17.66,25.63h-4.09c0-11.63-5.81-25.63-18.3-25.63v-4.09c9.04,0,13.57-5.17,13.57-16.58,0-21.97,5.6-42.85,49.96-104.01l3.02,2.15Z"/><path class="cls-2" d="m416.77,28.86v-4.09c9.91,0,14-15.51,14-22.61h3.88c0,6.68,3.23,22.61,14.21,22.61v4.09c-10.12,0-14.21,14.64-14.21,22.61h-3.88c0-7.32-3.45-22.61-14-22.61Z"/><path class="cls-1" d="m592.92,18.3c-4.52,0-7.97,2.15-7.97,6.03v52.54c-12.06,2.58-20.03,9.69-21.97,17.66h-2.8c-4.52-9.91-19.38-15.29-28.86-15.29-5.81,0-12.71,4.09-12.92,11.2h-3.88c.22-15.07,8.83-23.69,20.03-23.69,12.92,0,27.78,11.41,31.66,11.41,3.66,0,4.09-4.09,4.09-8.18V17.01h-52.76c-4.52,29.07-19.17,64.17-61.8,85.71l-1.94-3.02c32.09-22.18,47.16-59.22,47.59-82.69h-36.18v-3.88h99.71c5.6,0,9.91-6.25,9.91-13.14h3.23c0,6.46,8.4,14.43,14.86,14.43v3.88Z"/><path class="cls-1" d="m572.46,93.89h-4.09c0,7.75-4.31,15.29-11.2,15.29h-62.67l-14.21-10.55v72.57c0,3.45-2.8,6.89-8.83,6.89v3.66c8.4,0,14.64,8.61,14.64,15.94h3.88c0-9.69,2.37-18.95,9.26-18.95h64.6v14.43h14.64v-73c0-3.45,2.8-6.46,8.4-6.46v-3.88c-8.61,0-14.43-9.04-14.43-15.94Zm-8.61,80.97h-68.91v-62.02h68.91v62.02Z"/></g></svg>