<?xml version="1.0" encoding="UTF-8"?><svg id="_レイヤー_2" xmlns="http://www.w3.org/2000/svg" viewBox="0 0 594.97 240.67"><defs><style>.cls-1{fill:#7f4e4e;}.cls-2{fill:#5f6aa0;}.cls-3{fill:none;stroke:#7f4e4e;stroke-width:.5px;}</style></defs><g id="_レイヤー_1-2"><path class="cls-1" d="m53.45,141.06c0,6.8-2.6,13.2-7.6,18.2-4.8,4.8-11.2,7.4-18.2,7.4-5.8,0-11.4-2-15.6-5.4v37.6H2.05v-57.8c0-14.2,11.4-25.8,25.6-25.8s25.8,11.6,25.8,25.8Zm-10,0c0-8.8-7-15.8-15.8-15.8s-15.6,7-15.6,15.8,7,15.6,15.6,15.6c4.2,0,8.2-1.6,11.2-4.6s4.6-6.8,4.6-11Z"/><path class="cls-1" d="m90.65,127.26v10c-8.6,0-15.6,7-15.6,15.8v25.6h-10v-25.6c0-14.2,11.4-25.8,25.6-25.8Z"/><path class="cls-1" d="m129.85,127.26c7,0,13.4,2.6,18.2,7.6,5,4.8,7.6,11.2,7.6,18.2,0,14.2-11.6,25.6-25.8,25.6s-25.6-11.4-25.6-25.6,11.4-25.8,25.6-25.8Zm0,41.4c8.8,0,15.8-7,15.8-15.6,0-4.2-1.6-8.2-4.6-11.2s-7-4.6-11.2-4.6c-8.6,0-15.6,7-15.6,15.8s7,15.6,15.6,15.6Z"/><path class="cls-1" d="m177.25,95.26v76.4c0,14.2-11.6,25.8-25.6,25.8v-10c8.6,0,15.6-7.2,15.6-15.8v-76.4h10Zm0-19.8v10h-10v-10h10Z"/><path class="cls-1" d="m214.84,127.06c7,0,13.4,2.8,18.2,7.6,5,4.8,7.6,11.2,7.6,18.2v5h-40.6c2.2,6.2,8,10.8,14.8,10.8v10c-14.2,0-25.6-11.6-25.6-25.8s11.4-25.8,25.6-25.8Zm-14.8,20.8h29.8c-.8-2.4-2-4.4-3.8-6.2-3-3-7-4.6-11.2-4.6-6.8,0-12.6,4.6-14.8,10.8Z"/><path class="cls-1" d="m301.04,134.66l-7,7c-6.2-6-16.2-6-22.2,0s-6.2,16.2,0,22.2c2.8,3,6.8,4.8,11,4.8s8.2-1.8,11.2-4.8l7,7.2c-4.8,4.8-11.2,7.6-18.2,7.6s-13.2-2.8-18.2-7.6c-10-10-10-26.4,0-36.4,10-10,26.4-10,36.4,0Z"/><path class="cls-1" d="m362.64,127.26h-20.8v51.4h-10v-51.4h-20.6v-10h20.6v-41h10v41h20.8v10Z"/><path class="cls-1" d="m391.24,91.46v14h-14v-14h14Zm0,63.2v14h-14v-14h14Z"/><path class="cls-1" d="m239.45.66c4.52,0,8.69,1.67,11.9,4.88s5,7.5,5,12.02c0,9.28-7.62,16.9-16.9,16.9-6.07,0-10.95,4.88-10.95,10.95,0,2.86,1.07,5.71,3.21,7.73,2.02,2.02,4.76,3.21,7.73,3.21,5.95,0,10.95-4.88,10.95-10.95h5.95c0,9.28-7.62,16.9-16.9,16.9-4.52,0-8.81-1.78-12.02-5s-4.88-7.38-4.88-11.9c0-9.4,7.5-16.9,16.9-16.9,5.95,0,10.95-5,10.95-10.95,0-2.98-1.19-5.71-3.21-7.73-2.14-2.14-4.88-3.21-7.73-3.21-6.07,0-10.95,4.88-10.95,10.95h-5.95c0-9.4,7.5-16.9,16.9-16.9Z"/><path class="cls-1" d="m284.08.66c4.52,0,8.69,1.67,11.9,4.88s5,7.5,5,12.02v27.84c0,9.28-7.62,16.9-16.9,16.9s-16.9-7.62-16.9-16.9v-27.84c0-9.4,7.5-16.9,16.9-16.9Zm0,55.69c5.95,0,10.95-4.88,10.95-10.95v-27.84c0-2.98-1.19-5.71-3.21-7.73-2.14-2.14-4.88-3.21-7.73-3.21-6.07,0-10.95,4.88-10.95,10.95v27.84c0,6.07,4.88,10.95,10.95,10.95Z"/><path class="cls-1" d="m329.65.66c4.52,0,8.69,1.67,11.9,4.88,3.21,3.21,5,7.5,5,12.02,0,9.28-7.62,16.9-16.9,16.9-6.07,0-10.95,4.88-10.95,10.95,0,2.86,1.07,5.71,3.21,7.73,2.02,2.02,4.76,3.21,7.73,3.21,5.95,0,10.95-4.88,10.95-10.95h5.95c0,9.28-7.62,16.9-16.9,16.9-4.52,0-8.8-1.78-12.02-5s-4.88-7.38-4.88-11.9c0-9.4,7.5-16.9,16.9-16.9,5.95,0,10.95-5,10.95-10.95,0-2.98-1.19-5.71-3.21-7.73-2.14-2.14-4.88-3.21-7.73-3.21-6.07,0-10.95,4.88-10.95,10.95h-5.95c0-9.4,7.5-16.9,16.9-16.9Z"/><path class="cls-1" d="m386.17,33.38c3.21,3.21,5,7.5,5,12.02,0,9.28-7.62,16.9-16.9,16.9s-16.9-7.62-16.9-16.9h5.95c0,6.07,4.88,10.95,10.95,10.95s10.95-4.88,10.95-10.95c0-2.98-1.19-5.71-3.21-7.73-2.14-2.14-4.88-3.21-7.73-3.21v-5.95c5.95,0,10.95-5,10.95-10.95,0-2.98-1.19-5.71-3.21-7.73-2.14-2.14-4.88-3.21-7.73-3.21-6.07,0-10.95,4.88-10.95,10.95h-5.95c0-9.4,7.5-16.9,16.9-16.9,4.52,0,8.69,1.67,11.9,4.88,3.21,3.21,5,7.5,5,12.02,0,5.71-2.97,10.83-7.38,13.92.83.6,1.67,1.19,2.38,1.9Z"/><path class="cls-2" d="m417.31,44.15c0,6.89,3.01,22.61,14,22.61v4.09c-10.12,0-14,14.64-14,22.61h-4.09c0-7.32-3.45-22.61-14-22.61v-4.09c9.91,0,14-15.51,14-22.61h4.09Z"/><path class="cls-1" d="m470.29,44.36c-38.33,57.07-40.7,81.62-40.7,101.43,0,10.98,4.52,17.01,14.21,17.01v4.09c-11.2,0-17.66,11.84-17.66,25.63h-4.09c0-11.63-5.81-25.63-18.3-25.63v-4.09c9.04,0,13.57-5.17,13.57-16.58,0-21.97,5.6-42.85,49.96-104.01l3.02,2.15Z"/><path class="cls-2" d="m418.82,28.86v-4.09c9.91,0,14-15.51,14-22.61h3.88c0,6.68,3.23,22.61,14.21,22.61v4.09c-10.12,0-14.21,14.64-14.21,22.61h-3.88c0-7.32-3.45-22.61-14-22.61Z"/><path class="cls-1" d="m594.97,18.3c-4.52,0-7.97,2.15-7.97,6.03v52.54c-12.06,2.58-20.03,9.69-21.97,17.66h-2.8c-4.52-9.91-19.38-15.29-28.86-15.29-5.81,0-12.71,4.09-12.92,11.2h-3.88c.22-15.07,8.83-23.69,20.03-23.69,12.92,0,27.78,11.41,31.66,11.41,3.66,0,4.09-4.09,4.09-8.18V17.01h-52.76c-4.52,29.07-19.17,64.17-61.8,85.71l-1.94-3.02c32.09-22.18,47.16-59.22,47.59-82.69h-36.18v-3.88h99.71c5.6,0,9.91-6.25,9.91-13.14h3.23c0,6.46,8.4,14.43,14.86,14.43v3.88Z"/><path class="cls-1" d="m574.52,93.89h-4.09c0,7.75-4.31,15.29-11.2,15.29h-62.67l-14.21-10.55v72.57c0,3.45-2.8,6.89-8.83,6.89v3.66c8.4,0,14.64,8.61,14.64,15.94h3.88c0-9.69,2.37-18.95,9.26-18.95h64.6v14.43h14.64v-73c0-3.45,2.8-6.46,8.4-6.46v-3.88c-8.61,0-14.43-9.04-14.43-15.94Zm-8.61,80.97h-68.91v-62.02h68.91v62.02Z"/><path class="cls-1" d="m15.51,226.45v1.8H0v-1.8h15.51Z"/><path class="cls-1" d="m53.17,219.58c0,4.5-1.8,8.57-4.64,11.63l4.28,4.28-1.3,1.26-4.32-4.32c-2.95,2.52-6.77,4.03-10.94,4.03v-1.8c3.67,0,7.06-1.33,9.68-3.49l-4.68-4.68,1.3-1.26,4.68,4.68c2.56-2.7,4.14-6.33,4.14-10.33v-1.62h-15.12v-1.8h16.92v3.42Z"/><path class="cls-1" d="m89.49,220.51v.9c0,3.24-1.26,6.3-3.56,8.57-1.44,1.48-3.2,2.52-5.11,3.06,1.12.97,1.84,2.41,1.84,4.03h-1.8c0-1.94-1.58-3.53-3.53-3.53v-1.8c2.77,0,5.36-1.08,7.34-3.02,1.73-1.73,2.77-4,2.99-6.41h-17.35v-1.8h19.19Z"/><path class="cls-1" d="m119.77,219.36c0,7.99-6.48,14.47-14.47,14.51v-1.8c6.98-.04,12.67-5.72,12.67-12.71v-1.22h-10.87v-1.8h12.67v3.02Zm4.54,16.41h-1.8c0-2.2-1.8-4-4-4v-1.8c3.2,0,5.79,2.59,5.79,5.79Z"/><path class="cls-1" d="m162.21,222.78h-7.2v8.89c0,3.2-2.59,5.76-5.76,5.76v-1.8c2.2,0,3.96-1.76,3.96-3.96v-8.89h-7.6c-.18,2.23-1.15,4.32-2.77,5.94l-1.26-1.3c1.48-1.48,2.3-3.46,2.3-5.54s-.83-4.07-2.3-5.58l1.26-1.26c1.62,1.62,2.59,3.71,2.77,5.94h16.59v1.8Z"/><path class="cls-1" d="m193.68,235.06c-1.48,1.48-3.46,2.3-5.54,2.3s-4.07-.83-5.54-2.3c-3.1-3.1-3.1-8.06,0-11.12,1.15-1.19,2.66-1.94,4.25-2.2v-8.17h1.8v8.06c1.91.14,3.71.94,5.04,2.3l-1.26,1.26c-1.01-1.01-2.34-1.62-3.78-1.76v3.02h-1.8v-2.88c-1.12.22-2.16.79-2.99,1.62-2.38,2.38-2.38,6.23,0,8.57,1.15,1.15,2.66,1.8,4.28,1.8s3.13-.65,4.28-1.8l1.26,1.3Z"/><path class="cls-1" d="m228.71,238.87v1.8c-5.54,0-10.04-4.5-10.04-10.01,0-1.73-1.4-3.13-3.13-3.13s-3.13,1.4-3.13,3.13h-1.8c0-2.74,2.2-4.93,4.93-4.93,1.37,0,2.48-1.12,2.48-2.52s-1.12-2.48-2.48-2.48-2.48,1.12-2.48,2.48h-1.8c0-2.34,1.91-4.28,4.28-4.28s4.28,1.94,4.28,4.28c0,1.37-.61,2.56-1.55,3.35,1.3.86,2.2,2.38,2.2,4.1,0,4.54,3.67,8.21,8.24,8.21Zm-13.17-23.18l-1.26-1.26,1.26-1.26,1.26,1.26-1.26,1.26Zm19.55,10.26v9.36h-.9c-1.8,0-3.24-1.48-3.24-3.28h1.8c0,.47.22.86.54,1.12v-7.2c0-2.56-2.05-4.61-4.61-4.61s-4.64,2.05-4.64,4.61v6.95h-1.8v-6.95c0-1.87.83-3.56,2.12-4.75v-4c0-2.38,1.94-4.32,4.32-4.32s4.28,1.94,4.28,4.32v4c1.3,1.15,2.12,2.84,2.12,4.75Zm-6.44,4.86c-1.87,0-3.42-1.55-3.42-3.42,0-.94.36-1.8,1.01-2.45.65-.65,1.51-.97,2.45-.97,1.87,0,3.42,1.55,3.42,3.42,0,.9-.36,1.76-1.01,2.41-.65.65-1.51,1.01-2.45,1.01Zm2.05-15.05c-.43-.65-1.19-1.08-2.02-1.08-1.4,0-2.52,1.12-2.52,2.52v2.84c.5-.22,1.04-.36,1.62-.43.11-1.8,1.3-3.31,2.92-3.85Zm-2.05,13.25c.47,0,.86-.18,1.19-.47.29-.32.47-.72.47-1.15,0-.9-.72-1.62-1.62-1.62-.43,0-.86.14-1.15.47-.32.29-.5.72-.5,1.15,0,.9.76,1.62,1.62,1.62Zm2.52-11.52c-.86.36-1.51,1.15-1.58,2.12.54.07,1.08.22,1.58.43v-2.56Z"/><path class="cls-1" d="m266.07,232.21l1.3,1.26c-4,4-10.51,4-14.51,0l1.3-1.26c3.28,3.28,8.64,3.28,11.91,0Zm-10.87-10.62l-1.3-1.3c1.58-1.55,3.64-2.41,5.87-2.41s4.25.86,5.83,2.41l.61.65-2.63,2.63-1.26-1.26s.72-.72,1.3-1.3c-1.12-.86-2.45-1.33-3.85-1.33-1.73,0-3.35.68-4.57,1.91Zm13.21-.76v-1.8h1.8v1.8h-1.8Zm1.8,1.8v1.8h-1.8v-1.8h1.8Z"/><path class="cls-1" d="m291.49,217.24v12.35c0,2.34,1.91,4.25,4.28,4.25s4.25-1.91,4.25-4.25h1.8c0,3.35-2.74,6.05-6.05,6.05s-6.08-2.7-6.08-6.05v-12.35h1.8Z"/><path class="cls-1" d="m326.34,219.04h5.97v1.8h-5.97v16.59h-1.8v-16.59h-3.24v-1.8h3.24v-3.6h1.8v3.6Zm8.13,8.82l-1.26-1.3c1.19-1.15,2.74-1.8,4.39-1.8s3.24.65,4.43,1.8l-1.3,1.3c-.83-.86-1.94-1.3-3.13-1.3s-2.27.43-3.13,1.3Zm7.92,7.52c-1.19,1.19-2.74,1.83-4.43,1.83s-3.2-.65-4.39-1.83l1.26-1.26c.86.83,1.98,1.29,3.13,1.29s2.3-.47,3.13-1.29l1.3,1.26Z"/><path class="cls-1" d="m369.29,226.53c.97.97,1.51,2.27,1.51,3.63,0,2.81-2.3,5.11-5.11,5.11s-5.11-2.3-5.11-5.11h1.8c0,1.84,1.48,3.31,3.31,3.31s3.31-1.48,3.31-3.31c0-.9-.36-1.73-.97-2.34-.65-.65-1.48-.97-2.34-.97v-1.8c1.8,0,3.31-1.51,3.31-3.31,0-.9-.36-1.73-.97-2.34-.65-.65-1.48-.97-2.34-.97-1.84,0-3.31,1.48-3.31,3.31h-1.8c0-2.84,2.27-5.11,5.11-5.11,1.37,0,2.63.5,3.6,1.48.97.97,1.51,2.27,1.51,3.64,0,1.73-.9,3.28-2.23,4.21.25.18.5.36.72.58Z"/><path class="cls-1" d="m384.3,230.02c0,2.84-2.3,5.15-5.11,5.15-1.37,0-2.66-.54-3.64-1.51s-1.48-2.27-1.48-3.64v-8.42c0-2.81,2.27-5.11,5.11-5.11s5.11,2.3,5.11,5.11h-1.8c0-1.8-1.51-3.31-3.31-3.31s-3.31,1.51-3.31,3.31v4.54c.86-.76,2.05-1.22,3.31-1.22,2.81,0,5.11,2.3,5.11,5.11Zm-1.8,0c0-1.8-1.51-3.31-3.31-3.31s-3.31,1.51-3.31,3.31c0,.9.32,1.73.97,2.38.61.61,1.44.97,2.34.97,1.8,0,3.31-1.51,3.31-3.35Z"/><path class="cls-1" d="m396.79,216.63v1.8h-3.6v6.59c2.38.43,4.21,2.52,4.21,5,0,1.37-.54,2.66-1.51,3.64s-2.23,1.51-3.6,1.51c-2.84,0-5.11-2.3-5.11-5.15h1.8c0,1.84,1.48,3.35,3.31,3.35.86,0,1.69-.36,2.34-.97.61-.65.97-1.48.97-2.38,0-1.8-1.51-3.31-3.31-3.31h-.9v-10.08h5.4Z"/><path class="cls-1" d="m435.85,226.02c0,5.08-4.1,9.21-9.21,9.21s-9.18-4.14-9.18-9.21,4.1-9.21,9.18-9.21,9.21,4.14,9.21,9.21Zm-16.45-.94h14.51c-.47-3.6-3.53-6.41-7.27-6.41s-6.77,2.81-7.23,6.41Zm14.51,1.87h-14.51c.47,3.6,3.53,6.37,7.23,6.37s6.8-2.77,7.27-6.37Z"/><path class="cls-1" d="m469.01,220.91c1.69,1.69,2.63,3.96,2.63,6.33s-.94,4.68-2.63,6.37l-1.3-1.3c1.37-1.33,2.12-3.13,2.12-5.08,0-1.58-.58-3.1-1.55-4.36-1.22,1.22-11.34,11.34-11.34,11.34l-.65-.61c-3.49-3.53-3.49-9.21,0-12.71,3.49-3.49,9.21-3.49,12.71,0Zm-11.99,10.73c1.15-1.15,8.86-8.85,10.01-10.04-2.81-2.16-6.88-1.98-9.43.58-1.4,1.4-2.12,3.24-2.12,5.08,0,1.55.54,3.1,1.55,4.39Z"/><path class="cls-1" d="m487.73,216.41h8.1v1.8h-8.1v-1.8Zm7.63,17.1c0,1.98-1.58,3.56-3.56,3.56s-3.56-1.58-3.56-3.56,1.58-3.6,3.56-3.6,3.56,1.62,3.56,3.6Zm-1.8,0c0-1.01-.79-1.8-1.76-1.8s-1.76.79-1.76,1.8.79,1.76,1.76,1.76,1.76-.79,1.76-1.76Zm-.86-19.8h-1.8v-1.8h1.8v1.8Zm0,9h-1.8v-1.8h1.8v1.8Zm-1.8,2.7h1.8v1.8h-1.8v-1.8Zm17.64,7.05h1.8c0,2.74-2.23,4.97-4.97,4.97s-4.97-2.23-4.97-4.97v-7.88h5c1.76,0,3.17-1.44,3.17-3.2s-1.4-3.17-3.17-3.17h-5.08v-1.8h5.08c2.74,0,4.97,2.23,4.97,4.97s-2.23,5-4.97,5h-3.2v6.08c0,1.76,1.44,3.17,3.17,3.17s3.17-1.4,3.17-3.17Z"/><path class="cls-1" d="m522.29,218.89v-1.8c2.48,0,4.5-2.02,4.5-4.5h1.8c0,3.49-2.81,6.3-6.3,6.3Zm3.1,12.78l-1.3,1.3-1.26-1.26,1.3-1.3,1.26,1.26Zm3.2,3.46h2.74v1.8h-7.24v-1.8h2.7v-6.55h-2.7v-1.8h2.7v-1.8h-2.7v-1.8h7.24v1.8h-2.74v1.8h2.74v1.8h-2.74v6.55Zm5.22-16.05v1.8c-2.38,0-5.15-1.91-5.15-4.39h1.8c0,1.37,1.87,2.59,3.35,2.59Zm-2.48,11.34l1.26,1.3-1.3,1.26-1.26-1.3,1.3-1.26Zm3.89-.94l-1.26-1.3,1.26-1.26,1.3,1.26-1.3,1.3Zm6.48-6.8v16.56h-.9c-1.91,0-3.46-1.55-3.46-3.46h1.8c0,.58.32,1.08.76,1.37v-7.2l-4.32,4.36-1.3-1.3,5.62-5.62v-4.72h-5.18v-1.8h8.78v-2.27h-6.05v-1.8h6.05c0-1.55-1.26-2.81-2.81-2.81h-3.24v-1.8h3.24c2.56,0,4.61,2.09,4.61,4.61v4.07h3.17v1.8h-6.77Zm7.2,9.4v1.8c-3.46,0-6.3-2.81-6.3-6.3h1.8c0,2.48,2.02,4.5,4.5,4.5Zm-.97-5.15l1.26,1.26-1.26,1.3-1.3-1.3,1.3-1.26Z"/><path class="cls-1" d="m578.41,226.45v1.8h-15.51v-1.8h15.51Z"/><path class="cls-3" d="m15.51,226.45v1.8H0v-1.8h15.51Z"/><path class="cls-3" d="m53.17,219.58c0,4.5-1.8,8.57-4.64,11.63l4.28,4.28-1.3,1.26-4.32-4.32c-2.95,2.52-6.77,4.03-10.94,4.03v-1.8c3.67,0,7.06-1.33,9.68-3.49l-4.68-4.68,1.3-1.26,4.68,4.68c2.56-2.7,4.14-6.33,4.14-10.33v-1.62h-15.12v-1.8h16.92v3.42Z"/><path class="cls-3" d="m89.49,220.51v.9c0,3.24-1.26,6.3-3.56,8.57-1.44,1.48-3.2,2.52-5.11,3.06,1.12.97,1.84,2.41,1.84,4.03h-1.8c0-1.94-1.58-3.53-3.53-3.53v-1.8c2.77,0,5.36-1.08,7.34-3.02,1.73-1.73,2.77-4,2.99-6.41h-17.35v-1.8h19.19Z"/><path class="cls-3" d="m119.77,219.36c0,7.99-6.48,14.47-14.47,14.51v-1.8c6.98-.04,12.67-5.72,12.67-12.71v-1.22h-10.87v-1.8h12.67v3.02Zm4.54,16.41h-1.8c0-2.2-1.8-4-4-4v-1.8c3.2,0,5.79,2.59,5.79,5.79Z"/><path class="cls-3" d="m162.21,222.78h-7.2v8.89c0,3.2-2.59,5.76-5.76,5.76v-1.8c2.2,0,3.96-1.76,3.96-3.96v-8.89h-7.6c-.18,2.23-1.15,4.32-2.77,5.94l-1.26-1.3c1.48-1.48,2.3-3.46,2.3-5.54s-.83-4.07-2.3-5.58l1.26-1.26c1.62,1.62,2.59,3.71,2.77,5.94h16.59v1.8Z"/><path class="cls-3" d="m193.68,235.06c-1.48,1.48-3.46,2.3-5.54,2.3s-4.07-.83-5.54-2.3c-3.1-3.1-3.1-8.06,0-11.12,1.15-1.19,2.66-1.94,4.25-2.2v-8.17h1.8v8.06c1.91.14,3.71.94,5.04,2.3l-1.26,1.26c-1.01-1.01-2.34-1.62-3.78-1.76v3.02h-1.8v-2.88c-1.12.22-2.16.79-2.99,1.62-2.38,2.38-2.38,6.23,0,8.57,1.15,1.15,2.66,1.8,4.28,1.8s3.13-.65,4.28-1.8l1.26,1.3Z"/><path class="cls-3" d="m228.71,238.87v1.8c-5.54,0-10.04-4.5-10.04-10.01,0-1.73-1.4-3.13-3.13-3.13s-3.13,1.4-3.13,3.13h-1.8c0-2.74,2.2-4.93,4.93-4.93,1.37,0,2.48-1.12,2.48-2.52s-1.12-2.48-2.48-2.48-2.48,1.12-2.48,2.48h-1.8c0-2.34,1.91-4.28,4.28-4.28s4.28,1.94,4.28,4.28c0,1.37-.61,2.56-1.55,3.35,1.3.86,2.2,2.38,2.2,4.1,0,4.54,3.67,8.21,8.24,8.21Zm-13.17-23.18l-1.26-1.26,1.26-1.26,1.26,1.26-1.26,1.26Zm19.55,10.26v9.36h-.9c-1.8,0-3.24-1.48-3.24-3.28h1.8c0,.47.22.86.54,1.12v-7.2c0-2.56-2.05-4.61-4.61-4.61s-4.64,2.05-4.64,4.61v6.95h-1.8v-6.95c0-1.87.83-3.56,2.12-4.75v-4c0-2.38,1.94-4.32,4.32-4.32s4.28,1.94,4.28,4.32v4c1.3,1.15,2.12,2.84,2.12,4.75Zm-6.44,4.86c-1.87,0-3.42-1.55-3.42-3.42,0-.94.36-1.8,1.01-2.45.65-.65,1.51-.97,2.45-.97,1.87,0,3.42,1.55,3.42,3.42,0,.9-.36,1.76-1.01,2.41-.65.65-1.51,1.01-2.45,1.01Zm2.05-15.05c-.43-.65-1.19-1.08-2.02-1.08-1.4,0-2.52,1.12-2.52,2.52v2.84c.5-.22,1.04-.36,1.62-.43.11-1.8,1.3-3.31,2.92-3.85Zm-2.05,13.25c.47,0,.86-.18,1.19-.47.29-.32.47-.72.47-1.15,0-.9-.72-1.62-1.62-1.62-.43,0-.86.14-1.15.47-.32.29-.5.72-.5,1.15,0,.9.76,1.62,1.62,1.62Zm2.52-11.52c-.86.36-1.51,1.15-1.58,2.12.54.07,1.08.22,1.58.43v-2.56Z"/><path class="cls-3" d="m266.07,232.21l1.3,1.26c-4,4-10.51,4-14.51,0l1.3-1.26c3.28,3.28,8.64,3.28,11.91,0Zm-10.87-10.62l-1.3-1.3c1.58-1.55,3.64-2.41,5.87-2.41s4.25.86,5.83,2.41l.61.65-2.63,2.63-1.26-1.26s.72-.72,1.3-1.3c-1.12-.86-2.45-1.33-3.85-1.33-1.73,0-3.35.68-4.57,1.91Zm13.21-.76v-1.8h1.8v1.8h-1.8Zm1.8,1.8v1.8h-1.8v-1.8h1.8Z"/><path class="cls-3" d="m291.49,217.24v12.35c0,2.34,1.91,4.25,4.28,4.25s4.25-1.91,4.25-4.25h1.8c0,3.35-2.74,6.05-6.05,6.05s-6.08-2.7-6.08-6.05v-12.35h1.8Z"/><path class="cls-3" d="m326.34,219.04h5.97v1.8h-5.97v16.59h-1.8v-16.59h-3.24v-1.8h3.24v-3.6h1.8v3.6Zm8.13,8.82l-1.26-1.3c1.19-1.15,2.74-1.8,4.39-1.8s3.24.65,4.43,1.8l-1.3,1.3c-.83-.86-1.94-1.3-3.13-1.3s-2.27.43-3.13,1.3Zm7.92,7.52c-1.19,1.19-2.74,1.83-4.43,1.83s-3.2-.65-4.39-1.83l1.26-1.26c.86.83,1.98,1.29,3.13,1.29s2.3-.47,3.13-1.29l1.3,1.26Z"/><path class="cls-3" d="m369.29,226.53c.97.97,1.51,2.27,1.51,3.63,0,2.81-2.3,5.11-5.11,5.11s-5.11-2.3-5.11-5.11h1.8c0,1.84,1.48,3.31,3.31,3.31s3.31-1.48,3.31-3.31c0-.9-.36-1.73-.97-2.34-.65-.65-1.48-.97-2.34-.97v-1.8c1.8,0,3.31-1.51,3.31-3.31,0-.9-.36-1.73-.97-2.34-.65-.65-1.48-.97-2.34-.97-1.84,0-3.31,1.48-3.31,3.31h-1.8c0-2.84,2.27-5.11,5.11-5.11,1.37,0,2.63.5,3.6,1.48.97.97,1.51,2.27,1.51,3.64,0,1.73-.9,3.28-2.23,4.21.25.18.5.36.72.58Z"/><path class="cls-3" d="m384.3,230.02c0,2.84-2.3,5.15-5.11,5.15-1.37,0-2.66-.54-3.64-1.51s-1.48-2.27-1.48-3.64v-8.42c0-2.81,2.27-5.11,5.11-5.11s5.11,2.3,5.11,5.11h-1.8c0-1.8-1.51-3.31-3.31-3.31s-3.31,1.51-3.31,3.31v4.54c.86-.76,2.05-1.22,3.31-1.22,2.81,0,5.11,2.3,5.11,5.11Zm-1.8,0c0-1.8-1.51-3.31-3.31-3.31s-3.31,1.51-3.31,3.31c0,.9.32,1.73.97,2.38.61.61,1.44.97,2.34.97,1.8,0,3.31-1.51,3.31-3.35Z"/><path class="cls-3" d="m396.79,216.63v1.8h-3.6v6.59c2.38.43,4.21,2.52,4.21,5,0,1.37-.54,2.66-1.51,3.64s-2.23,1.51-3.6,1.51c-2.84,0-5.11-2.3-5.11-5.15h1.8c0,1.84,1.48,3.35,3.31,3.35.86,0,1.69-.36,2.34-.97.61-.65.97-1.48.97-2.38,0-1.8-1.51-3.31-3.31-3.31h-.9v-10.08h5.4Z"/><path class="cls-3" d="m435.85,226.02c0,5.08-4.1,9.21-9.21,9.21s-9.18-4.14-9.18-9.21,4.1-9.21,9.18-9.21,9.21,4.14,9.21,9.21Zm-16.45-.94h14.51c-.47-3.6-3.53-6.41-7.27-6.41s-6.77,2.81-7.23,6.41Zm14.51,1.87h-14.51c.47,3.6,3.53,6.37,7.23,6.37s6.8-2.77,7.27-6.37Z"/><path class="cls-3" d="m469.01,220.91c1.69,1.69,2.63,3.96,2.63,6.33s-.94,4.68-2.63,6.37l-1.3-1.3c1.37-1.33,2.12-3.13,2.12-5.08,0-1.58-.58-3.1-1.55-4.36-1.22,1.22-11.34,11.34-11.34,11.34l-.65-.61c-3.49-3.53-3.49-9.21,0-12.71,3.49-3.49,9.21-3.49,12.71,0Zm-11.99,10.73c1.15-1.15,8.86-8.85,10.01-10.04-2.81-2.16-6.88-1.98-9.43.58-1.4,1.4-2.12,3.24-2.12,5.08,0,1.55.54,3.1,1.55,4.39Z"/><path class="cls-3" d="m487.73,216.41h8.1v1.8h-8.1v-1.8Zm7.63,17.1c0,1.98-1.58,3.56-3.56,3.56s-3.56-1.58-3.56-3.56,1.58-3.6,3.56-3.6,3.56,1.62,3.56,3.6Zm-1.8,0c0-1.01-.79-1.8-1.76-1.8s-1.76.79-1.76,1.8.79,1.76,1.76,1.76,1.76-.79,1.76-1.76Zm-.86-19.8h-1.8v-1.8h1.8v1.8Zm0,9h-1.8v-1.8h1.8v1.8Zm-1.8,2.7h1.8v1.8h-1.8v-1.8Zm17.64,7.05h1.8c0,2.74-2.23,4.97-4.97,4.97s-4.97-2.23-4.97-4.97v-7.88h5c1.76,0,3.17-1.44,3.17-3.2s-1.4-3.17-3.17-3.17h-5.08v-1.8h5.08c2.74,0,4.97,2.23,4.97,4.97s-2.23,5-4.97,5h-3.2v6.08c0,1.76,1.44,3.17,3.17,3.17s3.17-1.4,3.17-3.17Z"/><path class="cls-3" d="m522.29,218.89v-1.8c2.48,0,4.5-2.02,4.5-4.5h1.8c0,3.49-2.81,6.3-6.3,6.3Zm3.1,12.78l-1.3,1.3-1.26-1.26,1.3-1.3,1.26,1.26Zm3.2,3.46h2.74v1.8h-7.24v-1.8h2.7v-6.55h-2.7v-1.8h2.7v-1.8h-2.7v-1.8h7.24v1.8h-2.74v1.8h2.74v1.8h-2.74v6.55Zm5.22-16.05v1.8c-2.38,0-5.15-1.91-5.15-4.39h1.8c0,1.37,1.87,2.59,3.35,2.59Zm-2.48,11.34l1.26,1.3-1.3,1.26-1.26-1.3,1.3-1.26Zm3.89-.94l-1.26-1.3,1.26-1.26,1.3,1.26-1.3,1.3Zm6.48-6.8v16.56h-.9c-1.91,0-3.46-1.55-3.46-3.46h1.8c0,.58.32,1.08.76,1.37v-7.2l-4.32,4.36-1.3-1.3,5.62-5.62v-4.72h-5.18v-1.8h8.78v-2.27h-6.05v-1.8h6.05c0-1.55-1.26-2.81-2.81-2.81h-3.24v-1.8h3.24c2.56,0,4.61,2.09,4.61,4.61v4.07h3.17v1.8h-6.77Zm7.2,9.4v1.8c-3.46,0-6.3-2.81-6.3-6.3h1.8c0,2.48,2.02,4.5,4.5,4.5Zm-.97-5.15l1.26,1.26-1.26,1.3-1.3-1.3,1.3-1.26Z"/><path class="cls-3" d="m578.41,226.45v1.8h-15.51v-1.8h15.51Z"/></g></svg>