<?xml version="1.0" encoding="UTF-8"?><svg id="_レイヤー_1" xmlns="http://www.w3.org/2000/svg" viewBox="0 0 841.89 595.28"><defs><style>.cls-1{fill:#231815;stroke:#231815;stroke-miterlimit:10;stroke-width:12px;}</style></defs><path class="cls-1" d="m257.71,356.38c3.88-27.71,16.07-52.09,36.58-73.15l33.8-31.03v-12.19c-10.53-23.28-16.62-49.32-19.4-76.48h13.3l6.1,9.42-2.22,6.1,2.22,6.1-2.22,13.85,15.52,39.35,6.1,1.66c19.4-6.65,39.35-10.53,60.4-13.3l24.94-47.66,16.07-3.88,2.22,8.31c-14.96,12.75-22.72,27.71-25.49,44.89,28.26,2.77,53.75,13.3,75.92,31.59,7.76,14.96,11.64,30.48,11.64,47.1l-1.66,8.31,7.76,9.97c21.06,8.87,43.23,13.85,66.5,13.85l-41.01,5.54-35.47-7.76c-8.31,12.75-12.75,27.71-15.52,43.23l-17.18,6.1-22.17-19.4v-18.29l29.37-23.28,12.19-6.1,5.54-23.83c-1.66-11.64-4.99-22.17-11.64-31.59-19.4-15.52-42.12-23.27-68.16-21.61l-9.98,6.1c-7.76,14.41-16.07,28.82-24.38,43.22-8.31,14.41-14.96,29.93-18.84,45.44,3.88,14.41,12.75,27.71,25.49,39.35l9.98,1.66v8.31l-13.85,2.22c-11.08-7.2-20.5-17.18-27.15-29.92h-5.54c-19.4,24.94-41.56,48.77-64.84,70.93l-9.42,2.22c-22.17-19.95-31.03-44.89-25.49-75.37Zm73.15,9.98c7.76-14.96,14.41-30.48,18.29-47.1-6.65-17.18-12.19-34.36-17.18-51.54h-6.1c-19.4,17.18-36.02,37.13-50.98,59.3l-5.54,41.56c-1.11,18.29,3.88,33.25,15.52,45.44l6.1,2.22,9.42-6.1c12.19-14.96,22.17-29.37,30.48-43.78Zm65.39-121.92l-15.52-4.43c-11.64,2.77-22.17,8.87-31.59,17.73l-1.66,16.07c3.88,13.3,9.42,24.38,17.18,33.25l31.59-62.62Zm93.65,96.43h-8.31l-13.3,15.52v8.31l13.3,6.1,8.31-29.93Z"/></svg>